<svg xmlns="http://www.w3.org/2000/svg">
    <symbol viewBox="0 0 24 24" id="date_range_24">
        <title>date_range_24</title>
        <path d="M9 11H7v2h2v-2zm4 0h-2v2h2v-2zm4 0h-2v2h2v-2zm2-7h-1V2h-2v2H8V2H6v2H5c-1.11 0-1.99.9-1.99 2L3 20c0 1.1.89 2 2 2h14c1.1 0 2-.9 2-2V6c0-1.1-.9-2-2-2zm0 16H5V9h14v11z"
        />
    </symbol>
    <symbol viewBox="0 0 24 24" id="done_24">
        <title>done_24</title>
        <path d="M9 16.2L4.8 12l-1.4 1.4L9 19 21 7l-1.4-1.4L9 16.2z" />
    </symbol>
    <symbol viewBox="0 0 18 18" id="chevron_left_18">
        <title>chevron_left_18</title>
        <path d="M11.56 5.56L10.5 4.5 6 9l4.5 4.5 1.06-1.06L8.12 9z" />
    </symbol>
    <symbol viewBox="0 0 18 18" id="chevron_right_18">
        <title>chevron_right_18</title>
        <path d="M7.5 4.5L6.44 5.56 9.88 9l-3.44 3.44L7.5 13.5 12 9z" />
    </symbol>
</svg>